<svg width="64" height="64" viewBox="0 0 64 64" fill="none" xmlns="http://www.w3.org/2000/svg">
<path opacity="0.2" d="M7 4H57C58.662 4 60 5.338 60 7V50.1713L55.1964 55.2532C54.0547 56.461 50.9733 55.4412 50.0129 56.7976L47.7453 60H7C5.338 60 4 58.662 4 57V7C4 5.338 5.338 4 7 4Z" fill="black"/>
<path d="M60 31V49.7346L55.7786 54.2532C54.644 55.4677 53.5337 54.9303 52.3419 56.0887L49.3465 59H30V31H60Z" fill="#666666"/>
<path d="M4 29V56C4 57.662 5.338 59 7 59H32V29H4Z" fill="#8C8C8C"/>
<path d="M7 3C5.338 3 4 4.338 4 6V31H34V3H7Z" fill="#A6A6A6"/>
<path d="M57 3C58.662 3 60 4.338 60 6V31H32V3H57Z" fill="#595959"/>
<path opacity="0.2" d="M7 3C5.338 3 4 4.338 4 6V7C4 5.338 5.338 4 7 4H57C58.662 4 60 5.338 60 7V6C60 4.338 58.662 3 57 3H7Z" fill="white"/>
<path opacity="0.2" d="M46 63C54.8366 63 62 55.8366 62 47C62 38.1634 54.8366 31 46 31C37.1634 31 30 38.1634 30 47C30 55.8366 37.1634 63 46 63Z" fill="black"/>
<path d="M46 62C54.8366 62 62 54.8366 62 46C62 37.1634 54.8366 30 46 30C37.1634 30 30 37.1634 30 46C30 54.8366 37.1634 62 46 62Z" fill="#EF7303"/>
<path opacity="0.2" d="M18 13V19H12V21H18V27H20V21H26V19H20V13H18ZM40 19V21H52V19H40ZM12.4766 40L11 41.4785L16.5234 47L11 52.5215L12.4766 54L17.998 48.4766L23.5215 54L25 52.5215L19.4746 47L25 41.4785L23.5215 40L17.998 45.5234L12.4766 40Z" fill="black"/>
<path d="M18 12V18H12V20H18V26H20V20H26V18H20V12H18ZM40 18V20H52V18H40ZM12.4766 39L11 40.4785L16.5234 46L11 51.5215L12.4766 53L17.998 47.4766L23.5215 53L25 51.5215L19.4746 46L25 40.4785L23.5215 39L17.998 44.5234L12.4766 39Z" fill="white"/>
<path d="M41.1288 45.12C40.0408 45.12 39.1928 44.844 38.5848 44.292C37.9768 43.74 37.6568 42.92 37.6248 41.832C37.6168 41.6 37.6128 41.26 37.6128 40.812C37.6128 40.356 37.6168 40.012 37.6248 39.78C37.6568 38.716 37.9848 37.9 38.6088 37.332C39.2328 36.764 40.0728 36.48 41.1288 36.48C42.1848 36.48 43.0248 36.764 43.6488 37.332C44.2808 37.9 44.6128 38.716 44.6448 39.78C44.6608 40.244 44.6688 40.588 44.6688 40.812C44.6688 41.028 44.6608 41.368 44.6448 41.832C44.6048 42.92 44.2808 43.74 43.6728 44.292C43.0648 44.844 42.2168 45.12 41.1288 45.12ZM41.1288 43.74C41.6648 43.74 42.0928 43.58 42.4128 43.26C42.7328 42.932 42.9048 42.436 42.9288 41.772C42.9448 41.292 42.9528 40.968 42.9528 40.8C42.9528 40.616 42.9448 40.292 42.9288 39.828C42.9048 39.164 42.7328 38.672 42.4128 38.352C42.0928 38.024 41.6648 37.86 41.1288 37.86C40.6008 37.86 40.1768 38.024 39.8568 38.352C39.5368 38.672 39.3648 39.164 39.3408 39.828C39.3328 40.06 39.3288 40.384 39.3288 40.8C39.3288 41.208 39.3328 41.532 39.3408 41.772C39.3648 42.436 39.5328 42.932 39.8448 43.26C40.1648 43.58 40.5928 43.74 41.1288 43.74Z" fill="white"/>
<path d="M46.5446 45C46.4566 45 46.3846 44.976 46.3286 44.928C46.2726 44.872 46.2446 44.8 46.2446 44.712V36.9C46.2446 36.812 46.2726 36.74 46.3286 36.684C46.3846 36.628 46.4566 36.6 46.5446 36.6H47.4926C47.6606 36.6 47.7806 36.676 47.8526 36.828L50.1686 41.148L52.5086 36.828C52.5886 36.676 52.7086 36.6 52.8686 36.6H53.8046C53.8926 36.6 53.9646 36.628 54.0206 36.684C54.0766 36.74 54.1046 36.812 54.1046 36.9V44.712C54.1046 44.8 54.0766 44.872 54.0206 44.928C53.9646 44.976 53.8926 45 53.8046 45H52.7966C52.7166 45 52.6486 44.972 52.5926 44.916C52.5366 44.86 52.5086 44.792 52.5086 44.712V39.516L50.8286 42.72C50.7246 42.896 50.5886 42.984 50.4206 42.984H49.9286C49.7606 42.984 49.6246 42.896 49.5206 42.72L47.8406 39.516V44.712C47.8406 44.792 47.8126 44.86 47.7566 44.916C47.7086 44.972 47.6406 45 47.5526 45H46.5446Z" fill="white"/>
<path d="M37.6311 55.12C36.5271 55.12 35.6711 54.836 35.0631 54.268C34.4631 53.7 34.1431 52.9 34.1031 51.868C34.0951 51.652 34.0911 51.3 34.0911 50.812C34.0911 50.316 34.0951 49.956 34.1031 49.732C34.1431 48.708 34.4671 47.912 35.0751 47.344C35.6911 46.768 36.5431 46.48 37.6311 46.48C38.3431 46.48 38.9631 46.604 39.4911 46.852C40.0191 47.092 40.4271 47.424 40.7151 47.848C41.0031 48.264 41.1551 48.736 41.1711 49.264V49.288C41.1711 49.352 41.1431 49.408 41.0871 49.456C41.0391 49.496 40.9831 49.516 40.9191 49.516H39.7791C39.6831 49.516 39.6111 49.496 39.5631 49.456C39.5151 49.416 39.4751 49.34 39.4431 49.228C39.3151 48.724 39.1031 48.372 38.8071 48.172C38.5111 47.964 38.1151 47.86 37.6191 47.86C36.4671 47.86 35.8671 48.504 35.8191 49.792C35.8111 50.008 35.8071 50.34 35.8071 50.788C35.8071 51.236 35.8111 51.576 35.8191 51.808C35.8671 53.096 36.4671 53.74 37.6191 53.74C38.1151 53.74 38.5111 53.636 38.8071 53.428C39.1111 53.22 39.3231 52.868 39.4431 52.372C39.4671 52.26 39.5031 52.184 39.5511 52.144C39.6071 52.104 39.6831 52.084 39.7791 52.084H40.9191C40.9911 52.084 41.0511 52.108 41.0991 52.156C41.1551 52.204 41.1791 52.264 41.1711 52.336C41.1551 52.864 41.0031 53.34 40.7151 53.764C40.4271 54.18 40.0191 54.512 39.4911 54.76C38.9631 55 38.3431 55.12 37.6311 55.12Z" fill="white"/>
<path d="M44.2622 55.12C43.8542 55.12 43.4782 55.04 43.1342 54.88C42.7982 54.712 42.5302 54.488 42.3302 54.208C42.1382 53.928 42.0422 53.62 42.0422 53.284C42.0422 52.74 42.2622 52.3 42.7022 51.964C43.1422 51.628 43.7462 51.4 44.5142 51.28L46.1582 51.04V50.788C46.1582 50.436 46.0702 50.172 45.8942 49.996C45.7182 49.82 45.4342 49.732 45.0422 49.732C44.7782 49.732 44.5622 49.784 44.3942 49.888C44.2342 49.984 44.1062 50.08 44.0102 50.176C43.9142 50.28 43.8502 50.348 43.8182 50.38C43.7862 50.476 43.7262 50.524 43.6382 50.524H42.7142C42.6422 50.524 42.5782 50.5 42.5222 50.452C42.4742 50.404 42.4502 50.34 42.4502 50.26C42.4582 50.06 42.5542 49.832 42.7382 49.576C42.9302 49.32 43.2222 49.1 43.6142 48.916C44.0062 48.732 44.4862 48.64 45.0542 48.64C45.9982 48.64 46.6862 48.852 47.1182 49.276C47.5502 49.7 47.7662 50.256 47.7662 50.944V54.712C47.7662 54.792 47.7382 54.86 47.6822 54.916C47.6342 54.972 47.5662 55 47.4782 55H46.5062C46.4262 55 46.3582 54.972 46.3022 54.916C46.2462 54.86 46.2182 54.792 46.2182 54.712V54.244C46.0422 54.5 45.7902 54.712 45.4622 54.88C45.1422 55.04 44.7422 55.12 44.2622 55.12ZM44.6702 53.98C45.1102 53.98 45.4702 53.836 45.7502 53.548C46.0302 53.26 46.1702 52.84 46.1702 52.288V52.036L44.9702 52.228C44.5062 52.3 44.1542 52.416 43.9142 52.576C43.6822 52.736 43.5662 52.932 43.5662 53.164C43.5662 53.42 43.6742 53.62 43.8902 53.764C44.1062 53.908 44.3662 53.98 44.6702 53.98Z" fill="white"/>
<path d="M49.6057 55C49.5257 55 49.4577 54.972 49.4017 54.916C49.3457 54.86 49.3177 54.792 49.3177 54.712V46.768C49.3177 46.68 49.3457 46.612 49.4017 46.564C49.4577 46.508 49.5257 46.48 49.6057 46.48H50.6017C50.6897 46.48 50.7577 46.508 50.8057 46.564C50.8617 46.612 50.8897 46.68 50.8897 46.768V54.712C50.8897 54.792 50.8617 54.86 50.8057 54.916C50.7577 54.972 50.6897 55 50.6017 55H49.6057Z" fill="white"/>
<path d="M55.1815 55.12C54.3015 55.12 53.5975 54.876 53.0695 54.388C52.5495 53.9 52.2735 53.224 52.2415 52.36L52.2295 51.88L52.2415 51.4C52.2735 50.536 52.5495 49.86 53.0695 49.372C53.5975 48.884 54.3015 48.64 55.1815 48.64C55.8055 48.64 56.3335 48.752 56.7655 48.976C57.2055 49.2 57.5295 49.476 57.7375 49.804C57.9535 50.124 58.0695 50.428 58.0855 50.716C58.0935 50.796 58.0655 50.864 58.0015 50.92C57.9455 50.976 57.8775 51.004 57.7975 51.004H56.7415C56.6615 51.004 56.5975 50.988 56.5495 50.956C56.5095 50.916 56.4695 50.852 56.4295 50.764C56.3095 50.452 56.1495 50.228 55.9495 50.092C55.7575 49.956 55.5095 49.888 55.2055 49.888C54.7975 49.888 54.4775 50.02 54.2455 50.284C54.0135 50.54 53.8895 50.932 53.8735 51.46L53.8615 51.904L53.8735 52.3C53.9055 53.348 54.3495 53.872 55.2055 53.872C55.5175 53.872 55.7695 53.804 55.9615 53.668C56.1535 53.532 56.3095 53.308 56.4295 52.996C56.4695 52.908 56.5095 52.848 56.5495 52.816C56.5975 52.776 56.6615 52.756 56.7415 52.756H57.7975C57.8775 52.756 57.9455 52.784 58.0015 52.84C58.0655 52.896 58.0935 52.964 58.0855 53.044C58.0695 53.324 57.9575 53.624 57.7495 53.944C57.5415 54.264 57.2215 54.54 56.7895 54.772C56.3575 55.004 55.8215 55.12 55.1815 55.12Z" fill="white"/>
</svg>
