<?xml version="1.0" standalone="no"?>
<!DOCTYPE svg PUBLIC "-//W3C//DTD SVG 20010904//EN"
 "http://www.w3.org/TR/2001/REC-SVG-20010904/DTD/svg10.dtd">
<svg version="1.0" xmlns="http://www.w3.org/2000/svg"
 width="700.000000pt" height="700.000000pt" viewBox="0 0 700.000000 700.000000"
 preserveAspectRatio="xMidYMid meet">
<metadata>
Created by potrace 1.14, written by Peter Selinger 2001-2017
</metadata>
<g transform="translate(0.000000,700.000000) scale(0.100000,-0.100000)"
fill="#000000" stroke="none">
<path d="M855 6670 c-159 -5 -185 -8 -225 -28 -96 -47 -161 -128 -182 -227
-11 -49 -13 -588 -12 -2820 1 -1518 4 -2772 7 -2787 3 -14 10 -36 17 -47 6
-12 8 -21 5 -21 -4 0 3 -13 14 -29 11 -15 18 -31 14 -35 -3 -3 1 -6 11 -6 9 0
14 -4 11 -10 -3 -5 -3 -10 2 -10 4 0 23 -14 41 -30 19 -16 42 -32 53 -35 10
-4 19 -9 19 -13 0 -4 12 -8 26 -8 14 -1 32 -10 40 -20 9 -11 13 -13 9 -6 -4 8
1 12 15 12 13 0 19 -4 14 -12 -5 -7 -3 -8 7 -2 18 11 90 14 110 3 9 -5 21 -3
27 3 9 9 12 9 12 -1 0 -7 5 -9 13 -4 20 12 97 12 90 -1 -4 -6 1 -5 10 3 10 8
20 11 24 7 3 -3 0 -6 -7 -6 -7 0 -10 -3 -7 -6 4 -4 13 -1 22 6 11 9 15 9 15 1
0 -7 5 -9 12 -4 18 11 89 12 109 2 9 -5 21 -3 27 3 9 9 12 9 12 -1 0 -7 5 -9
13 -4 17 11 78 13 71 2 -3 -5 -1 -9 5 -9 5 0 12 6 15 13 5 9 7 9 12 -1 3 -6
11 -9 17 -5 18 11 127 11 120 0 -3 -5 4 -4 15 2 27 14 35 14 26 -1 -6 -10 -4
-10 7 0 16 14 33 16 24 2 -3 -5 -2 -10 4 -10 5 0 12 6 15 13 5 9 7 9 12 -1 3
-6 11 -9 17 -5 17 11 127 11 120 0 -3 -5 4 -4 15 2 27 14 35 14 26 -1 -6 -10
-4 -11 7 0 16 14 33 16 24 2 -3 -5 -2 -10 4 -10 5 0 12 6 15 13 5 9 7 9 12 -1
3 -6 11 -9 17 -5 18 11 127 11 120 0 -3 -5 4 -4 15 2 27 14 35 14 26 -1 -6
-10 -4 -10 7 0 16 14 33 16 24 2 -3 -5 -2 -10 4 -10 5 0 12 6 15 13 5 9 7 9
12 -1 3 -6 11 -9 17 -5 17 11 127 11 120 0 -3 -5 4 -4 15 2 27 14 35 14 26 -1
-6 -10 -4 -10 7 0 16 14 33 16 24 2 -3 -5 -2 -10 4 -10 5 0 12 6 15 13 5 9 7
9 12 -1 3 -6 11 -9 17 -5 18 11 127 11 120 0 -3 -5 4 -4 15 2 27 14 35 14 26
-1 -6 -10 -4 -10 7 0 16 14 33 16 24 2 -3 -5 -2 -10 4 -10 5 0 12 6 15 13 5 9
7 9 12 -1 3 -6 11 -9 17 -5 17 11 127 11 120 0 -3 -5 4 -4 15 2 27 14 35 14
26 -1 -6 -10 -4 -10 7 -1 16 15 33 17 24 3 -3 -5 -2 -10 4 -10 5 0 12 6 15 13
5 9 7 9 12 -1 3 -6 11 -9 17 -5 18 11 127 11 120 0 -3 -5 4 -4 15 2 27 14 35
14 26 -1 -6 -10 -4 -10 7 -1 16 15 33 17 24 3 -3 -5 -2 -10 4 -10 5 0 12 6 15
13 5 9 7 9 12 -1 3 -6 11 -9 17 -5 17 11 127 11 120 0 -3 -5 4 -4 15 2 27 14
35 14 26 -2 -6 -9 -4 -9 7 0 16 15 33 17 24 3 -3 -5 -2 -10 4 -10 5 0 12 6 15
13 5 9 7 9 12 -1 5 -10 9 -10 22 0 12 11 16 11 20 0 3 -10 7 -10 20 0 13 11
14 11 7 -1 -6 -10 -4 -12 5 -6 18 11 310 13 303 2 -3 -5 4 -4 15 2 27 14 35
14 26 -1 -6 -10 -4 -10 7 -1 16 15 33 17 24 3 -3 -5 -2 -10 4 -10 5 0 12 6 15
13 5 9 7 9 12 -1 3 -6 11 -9 17 -5 18 12 107 11 107 -1 0 -6 5 -5 12 2 14 14
32 16 24 4 -3 -5 1 -9 9 -9 8 0 15 3 15 7 0 4 8 7 17 7 20 0 48 -25 48 -41 0
-15 28 -14 31 2 1 7 0 8 -3 2 -2 -5 -10 -10 -15 -10 -6 0 -8 3 -5 7 4 3 1 13
-7 22 -13 14 -12 16 10 17 13 1 24 -2 24 -7 0 -5 5 -8 12 -6 6 1 17 -9 25 -23
7 -14 13 -19 13 -12 0 7 5 10 10 7 6 -4 7 -11 4 -17 -5 -7 -2 -8 6 -3 7 4 15
4 19 -1 3 -5 47 -29 96 -54 50 -25 93 -49 96 -53 3 -5 9 -8 13 -8 20 3 26 0
20 -11 -4 -6 -3 -8 4 -4 12 7 106 -27 97 -36 -3 -3 2 -5 12 -5 29 2 83 -14 83
-23 0 -5 6 -7 13 -5 13 5 90 -19 83 -26 -2 -2 12 -5 32 -5 33 -1 87 -10 87
-14 0 -3 64 -9 113 -11 23 -1 42 -4 42 -8 0 -3 21 -5 47 -4 152 8 263 7 263
-2 0 -5 4 -4 9 4 6 9 21 12 44 9 20 -2 33 0 30 5 -3 4 1 7 8 6 17 -3 164 28
197 41 16 7 22 6 22 -3 0 -9 2 -9 8 0 10 16 102 44 115 36 6 -3 7 -1 3 5 -4 7
-1 12 8 12 26 0 30 1 43 12 7 5 18 6 25 2 7 -4 9 -3 5 2 -10 11 91 56 107 47
6 -3 8 -3 4 2 -9 9 30 40 38 32 3 -3 14 3 25 14 10 10 26 19 34 19 8 0 15 5
15 11 0 5 5 7 10 4 6 -3 10 -1 10 5 0 6 5 8 10 5 6 -3 10 -2 10 4 0 5 17 20
38 32 20 13 47 32 59 42 11 11 24 17 27 16 3 -2 13 6 22 19 9 13 22 21 30 18
9 -3 11 0 7 11 -5 12 -2 15 10 10 9 -3 16 -3 14 2 -2 9 76 91 87 91 4 0 4 -5
0 -12 -4 -7 -3 -8 5 -4 6 4 9 11 6 16 -7 12 56 80 68 73 6 -3 7 -1 4 4 -4 6 6
25 22 42 16 17 27 31 24 31 -2 0 8 11 23 25 15 14 24 25 20 25 -4 0 7 20 25
44 21 30 37 43 48 39 13 -4 13 -3 2 5 -12 8 -11 15 6 38 11 16 23 39 27 51 4
11 13 27 21 33 8 7 15 19 15 27 0 8 9 27 20 43 11 15 17 30 13 34 -3 3 -1 6 5
6 7 0 11 3 10 8 -1 4 6 24 15 46 9 21 17 42 17 47 0 5 5 9 11 9 5 0 7 5 4 10
-8 13 4 52 14 45 5 -2 7 6 6 20 -2 13 3 29 11 36 7 6 11 15 9 20 -3 4 1 36 10
70 9 34 18 78 21 98 3 20 8 61 12 91 4 30 7 138 6 240 0 149 -5 207 -23 300
-28 144 -89 327 -144 434 l-42 81 -1 1780 c-1 979 -4 1797 -8 1817 -21 130
-141 248 -266 264 -57 7 -5192 11 -5435 4z"/>
<path d="M6570 1100 c0 -5 5 -10 11 -10 5 0 7 5 4 10 -3 6 -8 10 -11 10 -2 0
-4 -4 -4 -10z"/>
<path d="M6311 727 c-8 -10 -7 -14 2 -14 8 0 14 6 14 14 0 7 -1 13 -2 13 -2 0
-8 -6 -14 -13z"/>
<path d="M456 693 c-6 -14 -5 -15 5 -6 7 7 10 15 7 18 -3 3 -9 -2 -12 -12z"/>
<path d="M460 666 c0 -2 8 -10 18 -17 15 -13 16 -12 3 4 -13 16 -21 21 -21 13z"/>
<path d="M535 580 c-3 -5 -1 -10 4 -10 6 0 11 5 11 10 0 6 -2 10 -4 10 -3 0
-8 -4 -11 -10z"/>
<path d="M6155 551 c-3 -5 -2 -12 3 -15 5 -3 9 1 9 9 0 17 -3 19 -12 6z"/>
<path d="M6090 539 c0 -5 5 -7 10 -4 6 3 10 8 10 11 0 2 -4 4 -10 4 -5 0 -10
-5 -10 -11z"/>
<path d="M3920 519 c0 -5 5 -7 10 -4 6 3 10 8 10 11 0 2 -4 4 -10 4 -5 0 -10
-5 -10 -11z"/>
<path d="M4026 517 c3 -10 9 -15 12 -12 3 3 0 11 -7 18 -10 9 -11 8 -5 -6z"/>
<path d="M3940 505 c-7 -9 -8 -15 -2 -15 5 0 12 7 16 15 3 8 4 15 2 15 -2 0
-9 -7 -16 -15z"/>
<path d="M735 500 c3 -5 8 -10 11 -10 2 0 4 5 4 10 0 6 -5 10 -11 10 -5 0 -7
-4 -4 -10z"/>
<path d="M775 500 c3 -5 8 -10 11 -10 2 0 4 5 4 10 0 6 -5 10 -11 10 -5 0 -7
-4 -4 -10z"/>
<path d="M1055 500 c3 -5 8 -10 11 -10 2 0 4 5 4 10 0 6 -5 10 -11 10 -5 0 -7
-4 -4 -10z"/>
<path d="M1095 500 c3 -5 8 -10 11 -10 2 0 4 5 4 10 0 6 -5 10 -11 10 -5 0 -7
-4 -4 -10z"/>
<path d="M3410 500 c0 -5 5 -10 11 -10 5 0 7 5 4 10 -3 6 -8 10 -11 10 -2 0
-4 -4 -4 -10z"/>
<path d="M3490 499 c0 -5 5 -7 10 -4 6 3 10 8 10 11 0 2 -4 4 -10 4 -5 0 -10
-5 -10 -11z"/>
<path d="M3850 499 c0 -5 5 -7 10 -4 6 3 10 8 10 11 0 2 -4 4 -10 4 -5 0 -10
-5 -10 -11z"/>
<path d="M6030 500 c0 -5 5 -10 11 -10 5 0 7 5 4 10 -3 6 -8 10 -11 10 -2 0
-4 -4 -4 -10z"/>
<path d="M6090 499 c0 -5 5 -7 10 -4 6 3 10 8 10 11 0 2 -4 4 -10 4 -5 0 -10
-5 -10 -11z"/>
<path d="M2115 480 c-3 -5 -1 -10 4 -10 6 0 11 5 11 10 0 6 -2 10 -4 10 -3 0
-8 -4 -11 -10z"/>
<path d="M3075 480 c-3 -5 -1 -10 4 -10 6 0 11 5 11 10 0 6 -2 10 -4 10 -3 0
-8 -4 -11 -10z"/>
<path d="M3955 480 c-3 -5 -1 -10 4 -10 6 0 11 5 11 10 0 6 -2 10 -4 10 -3 0
-8 -4 -11 -10z"/>
<path d="M4005 480 c-4 -6 -11 -7 -17 -4 -7 4 -8 2 -4 -5 6 -9 12 -9 24 1 10
7 19 14 21 15 2 2 -1 3 -7 3 -6 0 -14 -5 -17 -10z"/>
<path d="M4025 467 c-14 -11 -15 -16 -5 -22 9 -6 11 -4 5 5 -6 10 -4 12 9 7 9
-4 15 -3 11 2 -3 5 1 12 7 14 7 3 8 6 2 6 -5 1 -18 -5 -29 -12z"/>
<path d="M685 460 c-3 -6 1 -7 9 -4 18 7 21 14 7 14 -6 0 -13 -4 -16 -10z"/>
<path d="M735 460 c3 -5 8 -10 11 -10 2 0 4 5 4 10 0 6 -5 10 -11 10 -5 0 -7
-4 -4 -10z"/>
<path d="M775 460 c-3 -5 -1 -10 4 -10 6 0 11 5 11 10 0 6 -2 10 -4 10 -3 0
-8 -4 -11 -10z"/>
<path d="M815 460 c-3 -5 -1 -10 4 -10 6 0 11 5 11 10 0 6 -2 10 -4 10 -3 0
-8 -4 -11 -10z"/>
<path d="M1055 460 c-3 -5 -1 -10 4 -10 6 0 11 5 11 10 0 6 -2 10 -4 10 -3 0
-8 -4 -11 -10z"/>
<path d="M1095 460 c-3 -5 -1 -10 4 -10 6 0 11 5 11 10 0 6 -2 10 -4 10 -3 0
-8 -4 -11 -10z"/>
<path d="M1135 460 c-3 -5 -1 -10 4 -10 6 0 11 5 11 10 0 6 -2 10 -4 10 -3 0
-8 -4 -11 -10z"/>
<path d="M3415 460 c3 -5 8 -10 11 -10 2 0 4 5 4 10 0 6 -5 10 -11 10 -5 0 -7
-4 -4 -10z"/>
<path d="M3455 460 c-3 -5 -1 -10 4 -10 6 0 11 5 11 10 0 6 -2 10 -4 10 -3 0
-8 -4 -11 -10z"/>
<path d="M3490 459 c0 -5 5 -7 10 -4 6 3 10 8 10 11 0 2 -4 4 -10 4 -5 0 -10
-5 -10 -11z"/>
<path d="M4067 464 c-4 -4 -7 -12 -7 -18 0 -6 5 -4 10 4 9 13 11 13 21 0 9
-12 10 -12 7 -1 -5 17 -21 25 -31 15z"/>
<path d="M4154 422 c4 -3 14 -7 22 -8 9 -1 13 0 10 4 -4 3 -14 7 -22 8 -9 1
-13 0 -10 -4z"/>
<path d="M4095 400 c-3 -5 -1 -10 4 -10 6 0 11 5 11 10 0 6 -2 10 -4 10 -3 0
-8 -4 -11 -10z"/>
<path d="M5935 380 c3 -5 8 -10 11 -10 2 0 4 5 4 10 0 6 -5 10 -11 10 -5 0 -7
-4 -4 -10z"/>
<path d="M4290 339 c0 -5 5 -7 10 -4 6 3 10 8 10 11 0 2 -4 4 -10 4 -5 0 -10
-5 -10 -11z"/>
<path d="M4290 299 c0 -5 5 -7 10 -4 6 3 10 8 10 11 0 2 -4 4 -10 4 -5 0 -10
-5 -10 -11z"/>
<path d="M4395 280 c-3 -5 -1 -10 4 -10 6 0 11 5 11 10 0 6 -2 10 -4 10 -3 0
-8 -4 -11 -10z"/>
<path d="M4430 279 c0 -5 5 -7 10 -4 6 3 10 8 10 11 0 2 -4 4 -10 4 -5 0 -10
-5 -10 -11z"/>
<path d="M4386 238 c3 -4 9 -8 15 -8 5 0 9 4 9 8 0 5 -7 9 -15 9 -8 0 -12 -4
-9 -9z"/>
<path d="M4435 240 c-3 -5 -1 -10 4 -10 6 0 11 5 11 10 0 6 -2 10 -4 10 -3 0
-8 -4 -11 -10z"/>
<path d="M5505 240 c-3 -6 1 -7 9 -4 18 7 21 14 7 14 -6 0 -13 -4 -16 -10z"/>
<path d="M5555 240 c3 -5 8 -10 11 -10 2 0 4 5 4 10 0 6 -5 10 -11 10 -5 0 -7
-4 -4 -10z"/>
<path d="M5595 240 c3 -5 8 -10 11 -10 2 0 4 5 4 10 0 6 -5 10 -11 10 -5 0 -7
-4 -4 -10z"/>
<path d="M4630 216 c0 -2 8 -10 18 -17 15 -13 16 -12 3 4 -13 16 -21 21 -21
13z"/>
<path d="M4670 216 c0 -2 8 -10 18 -17 15 -13 16 -12 3 4 -13 16 -21 21 -21
13z"/>
<path d="M4995 199 c-3 -4 2 -6 10 -5 21 3 28 13 10 13 -9 0 -18 -4 -20 -8z"/>
<path d="M5516 193 c-6 -14 -5 -15 5 -6 7 7 10 15 7 18 -3 3 -9 -2 -12 -12z"/>
<path d="M5130 180 c0 -5 5 -10 11 -10 5 0 7 5 4 10 -3 6 -8 10 -11 10 -2 0
-4 -4 -4 -10z"/>
<path d="M5356 158 c3 -5 10 -6 15 -3 13 9 11 12 -6 12 -8 0 -12 -4 -9 -9z"/>
<path d="M4814 142 c4 -3 14 -7 22 -8 9 -1 13 0 10 4 -4 3 -14 7 -22 8 -9 1
-13 0 -10 -4z"/>
</g>
</svg>
