<svg width="512" height="512" viewBox="0 0 512 512" fill="none" xmlns="http://www.w3.org/2000/svg">
<path d="M251.25 19.28C237.345 19.28 224.464 26.61 214.562 39.625C204.662 52.64 198.219 71.215 198.219 91.938C198.219 112.658 204.659 131.235 214.562 144.25C224.462 157.265 237.344 164.594 251.249 164.594C265.154 164.594 278.004 157.264 287.905 144.25C297.805 131.235 304.28 112.66 304.28 91.937C304.28 71.217 297.807 52.64 287.906 39.625C278.006 26.61 265.156 19.281 251.25 19.281V19.28ZM458 62.688C445.856 62.785 433.777 69.633 429.5 84.782L406.656 143.658L321.844 115.033L320.124 117.597C316.851 131.967 310.866 144.937 302.781 155.567C290.108 172.227 271.795 183.284 251.251 183.284C230.707 183.284 212.363 172.227 199.688 155.566C191.452 144.739 185.411 131.479 182.188 116.786L181.032 115.036L96.189 143.66L73.344 84.78C68.902 69.05 56.037 62.286 43.438 62.72C26.172 63.31 9.41399 77.438 15.5 100.53L55.594 213.187L164.031 185.594C219.661 268.059 221.901 350.48 182.813 432.874C181.916 373.682 150.12 323.564 170.72 289.312C114.427 345.788 164.947 396.352 103.97 460.594C106.834 434.208 102.964 407.822 94.063 381.438C97.081 419.843 98.26 458.013 29.093 487.75H150.813C150.783 487.793 150.748 487.832 150.719 487.875H354.969C354.944 487.835 354.929 487.79 354.905 487.75H481.405C403.108 443.18 456.47 410.763 410.343 373.937C424.653 392.872 403.887 420.241 401.78 452.594C344.352 405.308 346.412 350.308 350.438 295.064C334.066 347.409 327.824 399.747 335.468 452.094C291.748 363.478 283.515 274.867 341.468 186.25L447.281 213.188L487.376 100.531C493.626 76.815 475.75 62.548 458.001 62.688H458ZM213.156 95H244V113.688H213.156V95ZM258.186 95H289.031V113.688H258.19V95H258.186ZM403.906 309.78C366.238 316.524 358.353 362.498 395.376 377.063C386.076 353.933 389.126 331.573 403.906 309.781V309.78Z" fill="currentColor"/>
</svg>
