<svg width="512" height="512" viewBox="0 0 512 512" fill="none" xmlns="http://www.w3.org/2000/svg">
<path d="M171.125 20.28C167.447 20.284 163.838 20.307 160.281 20.375L154.563 20.5L152.063 25.625C145.579 38.932 128.475 49.345 106.126 57.25C97.396 60.338 88.004 63.053 78.406 65.563L88.063 82.375C96.316 80.135 104.498 77.661 112.376 74.875C134.419 67.08 154.629 56.617 165.751 39.062C220.053 38.522 288.917 45.79 347.439 68.188C402.213 89.151 447.089 122.571 465.251 174.812C463.188 174.144 461.046 173.479 458.938 172.812L395.658 120.219L369.782 150.219L326.658 103.749L303.502 138.062L258.222 92.155L230.314 130.28L184.314 84.47L160.534 129.594L121.752 101.874L114.346 128.156L137.94 169.25C151.54 162.16 170.557 154.78 187.815 151.53C200.421 149.16 212.182 148.978 219.908 151.22C227.635 153.46 231.145 156.382 232.564 164.22L234.377 174.188L244.157 171.594C318.765 151.817 412.167 176.051 476.127 198.031L491.907 203.471L488.283 187.157C472.78 117.786 417.833 75.1 354.126 50.72C294.401 27.86 226.291 20.247 171.126 20.28H171.125ZM40.72 50.313C28.098 50.799 16.955 60.933 17.344 78.939C111.414 212.649 192.66 351.586 256.814 496.501H298.25L52.406 53.22C50.343 52.322 48.066 51.26 45.969 50.875C44.133 50.539 42.519 50.238 40.719 50.312L40.72 50.313ZM382.75 255.97C373.893 256.05 364.842 257.23 355.78 259.656C300.553 274.44 267.737 328.736 281.438 379.812C284.695 391.959 296.154 405.028 310.906 416.156C320.996 423.766 332.391 430.461 342.969 435.876C340.915 422.132 337.099 408.846 329.905 395.938L346.218 386.844C364.928 420.429 363.935 454.962 364.248 487.75C373.568 489.28 382.708 490.79 391.718 491.938L393.56 457.938L412.217 458.938L410.341 493.718C421.455 494.363 432.357 494.096 443.091 492.312L441.435 456.937L460.122 456.094L461.56 487.564C468.273 485.169 474.924 482.024 481.528 477.937C482.168 472.385 484.388 452.309 485.561 423.969C486.126 410.297 486.325 395.406 485.873 380.874C470.238 384.898 454.248 375.611 450.06 359.999C445.848 344.294 455.18 328.146 470.904 323.936C473.361 323.279 475.848 322.961 478.279 322.936H478.343C465.917 283.512 428.73 257.113 386.53 256C385.274 255.967 384.015 255.957 382.75 255.97ZM387.47 326.906C402.622 326.756 416.522 336.796 420.625 352.094C425.488 370.224 414.745 388.86 396.595 393.719C378.442 398.577 359.769 387.816 354.905 369.686C350.045 351.556 360.817 332.92 378.969 328.061C381.804 327.301 384.662 326.933 387.469 326.905L387.47 326.906ZM439.406 373.094L465 426.72L426.437 432.78L439.407 373.094H439.406Z" fill="currentColor"/>
</svg>
